<svg version="1.1" id="Layer_1" xmlns="http://www.w3.org/2000/svg" xmlns:xlink="http://www.w3.org/1999/xlink" x="0px" y="0px"
	 width="100%" viewBox="0 0 768 768" enable-background="new 0 0 768 768" xml:space="preserve">
<path fill="#e2e2e4" opacity="1.000000" stroke="none" 
	d="
M147.069000,617.041992 
	C125.638557,607.442383 105.598579,596.416565 90.326561,578.483154 
	C81.690659,568.342285 76.550125,556.985596 76.568657,543.145020 
	C76.741798,413.818787 76.838661,284.491760 76.467430,155.166382 
	C76.418243,138.029236 82.695076,124.566017 94.033798,112.738564 
	C106.411087,99.827797 121.432999,90.645737 137.345749,82.852921 
	C150.917816,76.206375 164.845657,70.298279 179.353851,66.068047 
	C197.280884,60.840973 215.168411,55.498859 233.689468,52.398186 
	C244.622452,50.567856 255.549927,48.261154 266.522034,47.022320 
	C278.026062,45.723427 289.595917,44.456837 301.115967,43.290943 
	C329.053650,40.463512 356.992310,40.488499 384.949249,40.842930 
	C402.210022,41.061756 419.439911,42.742203 436.606720,44.742115 
	C445.485931,45.776527 454.413727,46.535984 463.221527,48.006733 
	C475.964081,50.134525 488.737213,52.075119 501.384125,54.837769 
	C517.429993,58.342926 533.309570,62.553329 548.757385,67.930733 
	C578.210571,78.183479 606.816223,90.329399 629.218994,113.237579 
	C640.475830,124.748367 646.581604,138.143097 646.445129,154.747360 
	C646.051819,202.574890 646.311523,250.407776 646.308899,298.238556 
	C646.308533,304.895538 646.168884,305.002411 639.680054,304.981567 
	C629.014221,304.947296 618.342041,304.721954 607.685059,305.021057 
	C602.744446,305.159729 601.518311,303.366211 601.553467,298.648102 
	C601.753296,271.818359 601.660095,244.986359 601.633789,218.155167 
	C601.631714,216.057159 602.039490,213.844742 600.528992,211.516342 
	C595.687317,213.072845 591.546814,215.831055 587.247192,218.170502 
	C573.897278,225.434143 559.531372,230.203140 545.289856,235.203659 
	C528.209961,241.200851 510.467285,244.727615 492.799408,248.577484 
	C471.335297,253.254593 449.656250,255.940308 427.822357,258.021393 
	C393.091461,261.331726 358.321777,261.691650 323.530823,260.106049 
	C306.257904,259.318878 288.947479,258.143372 271.808777,255.939758 
	C251.805511,253.367783 232.021484,249.298553 212.311478,244.850037 
	C187.751740,239.306915 164.100922,231.264359 141.166916,221.026398 
	C134.990112,218.269028 129.113968,214.838104 122.804871,211.563263 
	C120.225601,216.504944 121.335625,221.289902 121.561874,225.733246 
	C122.427811,242.739349 121.288544,259.715881 121.276794,276.704132 
	C121.272888,282.345947 123.257195,286.713623 127.280983,290.334778 
	C137.272354,299.326385 148.817169,305.741211 161.142822,310.955017 
	C171.680344,315.412476 182.360855,319.419983 193.225311,323.011230 
	C206.000305,327.234039 219.107559,330.034424 232.205399,332.942993 
	C257.639191,338.590942 283.253540,342.691437 309.345856,343.947174 
	C318.127167,344.369781 326.963409,344.807831 335.743683,345.734863 
	C338.730591,346.050232 340.342682,346.881165 340.320190,350.183838 
	C340.234924,362.682495 340.246155,375.182434 340.323212,387.681244 
	C340.343048,390.899231 339.040924,392.150085 335.816162,392.007843 
	C320.524628,391.333282 305.298645,389.798798 290.041626,388.726440 
	C279.742523,388.002563 269.547180,386.429749 259.440491,384.873566 
	C244.722549,382.607330 229.921448,380.458221 215.404129,376.860046 
	C184.571213,369.218018 154.263306,360.191681 126.353851,344.518829 
	C125.379974,343.971954 124.374863,343.191895 122.915718,343.755493 
	C120.954094,345.633667 121.405510,348.239838 121.398575,350.665131 
	C121.344292,369.663879 121.521904,388.665588 121.222656,407.660034 
	C121.126823,413.743591 123.394768,418.144043 127.677605,422.076080 
	C135.111130,428.900818 143.825821,433.627777 152.690979,438.239685 
	C168.981964,446.714752 186.362305,452.289429 203.843246,457.478394 
	C219.867996,462.235168 236.221024,465.738007 252.768906,468.311523 
	C266.686035,470.475952 280.625122,472.379181 294.607635,474.094513 
	C308.496979,475.798401 322.429901,476.102142 336.349365,476.931702 
	C338.967346,477.087738 340.310638,478.155426 340.300629,480.916382 
	C340.254150,493.748688 340.249054,506.581299 340.285950,519.413635 
	C340.296356,523.037903 337.974152,523.497559 335.256409,523.192993 
	C325.000946,522.043518 314.705750,521.561523 304.412537,520.916565 
	C291.810577,520.127014 279.211975,518.886414 266.697693,517.202942 
	C252.916641,515.349060 239.201706,513.088135 225.606812,509.918335 
	C215.282425,507.511017 204.890533,505.336731 194.659286,502.559540 
	C172.017197,496.413544 149.962173,488.684601 129.361725,477.240082 
	C128.198135,476.593597 127.038612,475.935852 125.845436,475.347809 
	C124.817482,474.841187 123.744148,474.426605 122.759583,474.001038 
	C120.694099,475.193054 121.426559,477.057526 121.421379,478.582458 
	C121.351166,499.247681 121.390816,519.913330 121.300537,540.578430 
	C121.278404,545.643616 123.390823,549.617920 127.029572,552.807556 
	C137.903641,562.339539 150.457520,569.096741 163.736343,574.590210 
	C173.383347,578.581238 183.098923,582.405640 193.064880,585.539429 
	C203.811218,588.918640 214.785233,591.428467 225.736984,594.035889 
	C235.400604,596.336670 245.139252,598.187561 254.897766,600.034119 
	C275.170807,603.870239 295.690063,605.371155 316.173096,607.232605 
	C322.461090,607.804077 328.822388,607.755310 335.146271,607.677185 
	C339.081024,607.628662 340.396484,609.245483 340.350616,613.054565 
	C340.206207,625.052185 340.181335,637.054260 340.353485,649.051086 
	C340.412231,653.147278 338.729523,654.179626 334.925751,653.957886 
	C322.794647,653.250854 310.609406,653.229004 298.519226,652.128418 
	C285.135925,650.910217 271.803040,649.004089 258.505096,647.016785 
	C241.612732,644.492249 224.744904,641.694031 208.200043,637.385071 
	C187.504105,631.994873 166.933807,626.158630 147.069000,617.041992 
M122.875664,148.532074 
	C120.732635,154.561539 125.456093,157.454453 128.827896,160.551727 
	C139.257141,170.131897 152.084778,175.787766 164.747650,181.656464 
	C178.031708,187.813065 192.101456,191.747543 206.031525,196.025818 
	C214.393753,198.594070 222.880219,200.975693 231.476913,202.512085 
	C244.839355,204.900238 258.236084,207.166901 271.651398,209.285736 
	C286.266876,211.594162 301.017212,213.736588 315.615356,214.193192 
	C338.850403,214.919952 362.081818,216.621216 385.468597,215.163040 
	C408.194946,213.746048 430.793976,212.027893 453.366425,208.963120 
	C470.972717,206.572632 488.509491,203.750198 505.594727,199.201050 
	C525.903992,193.793457 546.229980,188.017563 565.181824,178.516159 
	C576.327209,172.928452 587.592468,167.494659 596.399353,158.318909 
	C602.285645,152.186066 602.254211,149.217804 596.213501,143.131775 
	C588.479004,135.339279 578.935974,130.107544 569.270630,125.305779 
	C538.856873,110.196114 506.166168,102.108322 473.101959,95.634949 
	C462.120331,93.484947 450.897430,92.146500 439.695038,90.886597 
	C416.341553,88.260078 392.957031,86.799072 369.496094,86.336510 
	C351.678894,85.985214 333.905701,86.863358 316.105682,88.052139 
	C292.226044,89.646927 268.562836,92.196297 245.088745,96.996773 
	C228.044922,100.482262 211.036774,103.999138 194.474091,109.342743 
	C176.294449,115.208008 158.345032,121.706047 141.998749,131.836090 
	C134.948273,136.205368 127.649536,140.390503 122.875664,148.532074 
z"/>
<path fill="#e2e2e4" opacity="1.000000" stroke="none" 
	d="
M403.692902,654.957520 
	C402.667603,631.241455 405.554443,608.238708 408.165192,585.274109 
	C409.900177,570.013000 412.461914,554.753967 416.073425,539.837769 
	C417.816528,532.638428 422.726532,526.173279 426.389191,519.477722 
	C435.869659,502.146881 445.343323,484.810150 455.085907,467.626648 
	C457.130920,464.019714 456.136536,461.200256 454.365021,458.364563 
	C453.078705,456.305603 451.149445,455.364227 448.360870,456.310669 
	C433.121185,461.483337 417.792114,466.392700 402.554260,471.570648 
	C392.781921,474.891327 382.270355,466.530884 381.770630,454.824890 
	C381.405975,446.282410 384.651550,438.725647 389.213379,431.971191 
	C396.568115,421.081512 404.521057,410.590912 415.007477,402.341492 
	C419.090942,399.129150 423.398804,397.591888 428.739594,397.548981 
	C454.380890,397.342865 479.966003,399.674255 505.619629,399.003510 
	C512.059814,398.835144 517.013977,397.136078 521.158447,391.923035 
	C534.973572,374.546021 552.300659,361.059479 570.324768,348.373444 
	C572.931152,346.539032 575.639709,346.349457 578.398804,346.827423 
	C587.900452,348.473511 597.348022,350.122559 607.092834,349.762848 
	C612.399963,349.566925 617.882568,360.609619 615.322693,365.460236 
	C609.971863,375.599060 604.657471,385.757202 599.353699,395.920776 
	C599.060608,396.482452 599.000366,397.165649 598.842773,397.751434 
	C600.157593,399.530304 601.957581,398.943634 603.524109,398.947235 
	C617.356995,398.978699 631.197266,399.219604 645.020630,398.848663 
	C655.339294,398.571777 665.120239,394.921967 675.129150,392.746460 
	C680.310669,391.620239 685.675720,391.330353 690.688477,389.358368 
	C692.996338,388.450470 694.505371,389.560028 695.254517,391.853760 
	C696.844177,396.720764 698.729553,401.509460 700.003357,406.456482 
	C701.450134,412.075287 699.849121,417.519470 696.949158,422.235138 
	C688.909485,435.308563 679.441345,447.283691 668.931946,458.528168 
	C662.701111,465.194824 656.189087,465.420380 648.229614,462.859375 
	C635.912964,458.896423 623.488464,455.579193 610.255066,455.767487 
	C590.766479,456.044739 571.263489,455.720062 551.774841,455.282227 
	C546.999512,455.174988 544.510803,456.890289 542.577820,461.026062 
	C532.312134,482.990295 522.211060,505.043579 511.332123,526.703979 
	C505.820801,537.677307 503.980499,549.257751 502.201935,561.070374 
	C500.724182,570.885315 498.992889,580.683044 496.847137,590.371704 
	C493.298004,606.396851 491.911835,622.588562 493.447174,638.864258 
	C494.672913,651.857666 501.374298,662.887695 514.829163,668.016052 
	C525.693115,672.156738 536.970825,673.357361 548.297668,674.908752 
	C558.181458,676.262390 565.550476,671.068848 573.107056,666.328735 
	C593.018311,653.838684 611.086914,638.858337 629.428345,624.252319 
	C634.493958,620.218445 639.620789,616.261414 645.052368,612.008484 
	C654.703369,620.506836 662.842041,629.770569 661.110046,643.439148 
	C659.841492,653.450439 654.927246,662.280334 648.422607,670.093384 
	C636.253784,684.709717 621.314758,696.026123 605.568970,706.446106 
	C593.340759,714.538269 580.379456,721.323853 567.594360,728.433594 
	C544.861938,741.075195 520.724670,745.124573 494.972107,741.304993 
	C482.625488,739.473755 470.366669,737.472961 458.556976,733.475342 
	C433.226624,724.900757 414.898926,708.850708 407.399384,682.564636 
	C404.916473,673.861938 403.565002,664.675049 403.692902,654.957520 
z"/>
</svg>